<?xml version="1.0" encoding="UTF-8" standalone="no"?>
<!-- Created with Inkscape (http://www.inkscape.org/) -->

<svg
   version="1.1"
   id="svg699"
   xml:space="preserve"
   width="32"
   height="32"
   viewBox="0 0 32 32"
   xmlns="http://www.w3.org/2000/svg"
   xmlns:svg="http://www.w3.org/2000/svg"><defs
     id="defs703"><clipPath
       clipPathUnits="userSpaceOnUse"
       id="clipPath713"><path
         d="M 0,24 H 24 V 0 H 0 Z"
         id="path711" /></clipPath></defs><g
     id="g705"
     transform="matrix(1.3333333,0,0,-1.3333333,0,32)"><g
       id="g707"><g
         id="g709"
         clip-path="url(#clipPath713)"><g
           id="g715"
           transform="translate(4.5,15.5)"><path
             d="M 0,0 C 0,1.657 1.343,3 3,3 4.657,3 6,1.657 6,0 6,-1.657 4.657,-3 3,-3 1.343,-3 0,-1.657 0,0 Z"
             style="fill:none;stroke:#000000;stroke-width:3;stroke-linecap:butt;stroke-linejoin:miter;stroke-miterlimit:10;stroke-dasharray:none;stroke-opacity:1"
             id="path717" /></g><g
           id="g719"
           transform="translate(1.5,1.5)"><path
             d="M 0,0 C 0,3.313 2.687,6 6,6 9.313,6 12,3.313 12,0"
             style="fill:none;stroke:#000000;stroke-width:3;stroke-linecap:round;stroke-linejoin:miter;stroke-miterlimit:10;stroke-dasharray:none;stroke-opacity:1"
             id="path721" /></g><g
           id="g723"
           transform="translate(13.5,10.2432)"><path
             d="m 0,0 c 0.951,0.785 2.17,1.257 3.5,1.257 3.038,0 5.5,-2.463 5.5,-5.5"
             style="fill:none;stroke:#000000;stroke-width:3;stroke-linecap:round;stroke-linejoin:miter;stroke-miterlimit:10;stroke-dasharray:none;stroke-opacity:1"
             id="path725" /></g><g
           id="g727"
           transform="translate(14.5,19.5)"><path
             d="M 0,0 C 0,1.657 1.343,3 3,3 4.657,3 6,1.657 6,0 6,-1.657 4.657,-3 3,-3 1.343,-3 0,-1.657 0,0 Z"
             style="fill:none;stroke:#000000;stroke-width:3;stroke-linecap:butt;stroke-linejoin:miter;stroke-miterlimit:10;stroke-dasharray:none;stroke-opacity:1"
             id="path729" /></g></g></g></g></svg>
